<?xml version="1.0" encoding="UTF-8" standalone="no"?>
<!DOCTYPE svg PUBLIC "-//W3C//DTD SVG 1.1//EN"
 "http://www.w3.org/Graphics/SVG/1.1/DTD/svg11.dtd">
<!-- Generated by graphviz version 2.43.0 (0)
 -->
<!-- Title: MyPipeline Pages: 1 -->
<svg width="105pt" height="373pt"
 viewBox="0.00 0.00 105.00 373.00" xmlns="http://www.w3.org/2000/svg" xmlns:xlink="http://www.w3.org/1999/xlink">
<g id="graph0" class="graph" transform="scale(1 1) rotate(0) translate(4 369)">
<title>MyPipeline</title>
<polygon fill="#333333" stroke="transparent" points="-4,4 -4,-369 101,-369 101,4 -4,4"/>
<text text-anchor="middle" x="48.5" y="-349.8" font-family="Helvetica,sans-Serif" font-size="14.00" fill="#eeeeee">MyPipeline</text>
<text text-anchor="middle" x="48.5" y="-334.8" font-family="Helvetica,sans-Serif" font-size="14.00" fill="#eeeeee"> </text>
<g id="clust1" class="cluster">
<title>cluster_PG</title>
<polygon fill="#666666" stroke="#666666" points="8,-136 8,-283 78,-283 78,-136 8,-136"/>
<text text-anchor="middle" x="25.5" y="-267.8" font-family="Helvetica,sans-Serif" font-size="14.00" fill="#eeeeee">PG</text>
</g>
<!-- D -->
<g id="node1" class="node">
<title>D</title>
<path fill="none" stroke="#eeeeee" d="M58,-180C58,-180 28,-180 28,-180 22,-180 16,-174 16,-168 16,-168 16,-156 16,-156 16,-150 22,-144 28,-144 28,-144 58,-144 58,-144 64,-144 70,-150 70,-156 70,-156 70,-168 70,-168 70,-174 64,-180 58,-180"/>
<text text-anchor="middle" x="43" y="-158.9" font-family="Helvetica,sans-Serif" font-size="12.00" fill="#eeeeee">D</text>
</g>
<!-- E -->
<g id="node3" class="node">
<title>E</title>
<path fill="none" stroke="#eeeeee" d="M85,-108C85,-108 55,-108 55,-108 49,-108 43,-102 43,-96 43,-96 43,-84 43,-84 43,-78 49,-72 55,-72 55,-72 85,-72 85,-72 91,-72 97,-78 97,-84 97,-84 97,-96 97,-96 97,-102 91,-108 85,-108"/>
<text text-anchor="middle" x="70" y="-86.9" font-family="Helvetica,sans-Serif" font-size="12.00" fill="#eeeeee">E</text>
</g>
<!-- D&#45;&gt;E -->
<g id="edge2" class="edge">
<title>D&#45;&gt;E</title>
<path fill="none" stroke="#eeeeee" d="M49.67,-143.7C52.71,-135.81 56.38,-126.3 59.76,-117.55"/>
<polygon fill="#eeeeee" stroke="#eeeeee" points="63.07,-118.69 63.4,-108.1 56.54,-116.17 63.07,-118.69"/>
</g>
<!-- C -->
<g id="node2" class="node">
<title>C</title>
<path fill="none" stroke="#eeeeee" d="M58,-252C58,-252 28,-252 28,-252 22,-252 16,-246 16,-240 16,-240 16,-228 16,-228 16,-222 22,-216 28,-216 28,-216 58,-216 58,-216 64,-216 70,-222 70,-228 70,-228 70,-240 70,-240 70,-246 64,-252 58,-252"/>
<text text-anchor="middle" x="43" y="-230.9" font-family="Helvetica,sans-Serif" font-size="12.00" fill="#eeeeee">C</text>
</g>
<!-- C&#45;&gt;D -->
<g id="edge1" class="edge">
<title>C&#45;&gt;D</title>
<path fill="none" stroke="#eeeeee" stroke-dasharray="5,2" d="M43,-215.7C43,-207.98 43,-198.71 43,-190.11"/>
<polygon fill="#eeeeee" stroke="#eeeeee" points="46.5,-190.1 43,-180.1 39.5,-190.1 46.5,-190.1"/>
</g>
<!-- F -->
<g id="node4" class="node">
<title>F</title>
<polygon fill="none" stroke="#eeeeee" points="97,-36 43,-36 43,0 97,0 97,-36"/>
<text text-anchor="middle" x="70" y="-14.9" font-family="Helvetica,sans-Serif" font-size="12.00" fill="#eeeeee">F</text>
</g>
<!-- E&#45;&gt;F -->
<g id="edge5" class="edge">
<title>E&#45;&gt;F</title>
<path fill="none" stroke="#eeeeee" d="M70,-71.7C70,-63.98 70,-54.71 70,-46.11"/>
<polygon fill="#eeeeee" stroke="#eeeeee" points="73.5,-46.1 70,-36.1 66.5,-46.1 73.5,-46.1"/>
</g>
<!-- A -->
<g id="node5" class="node">
<title>A</title>
<polygon fill="none" stroke="#eeeeee" points="70,-327 43,-309 70,-291 97,-309 70,-327"/>
<text text-anchor="middle" x="70" y="-305.9" font-family="Helvetica,sans-Serif" font-size="12.00" fill="#eeeeee">A</text>
</g>
<!-- A&#45;&gt;C -->
<g id="edge3" class="edge">
<title>A&#45;&gt;C</title>
<path fill="none" stroke="#eeeeee" stroke-dasharray="5,2" d="M64.92,-294.27C61.53,-285.1 56.96,-272.74 52.87,-261.67"/>
<polygon fill="#eeeeee" stroke="#eeeeee" points="56.04,-260.18 49.29,-252.01 49.48,-262.6 56.04,-260.18"/>
</g>
<!-- A&#45;&gt;E -->
<g id="edge4" class="edge">
<title>A&#45;&gt;E</title>
<path fill="none" stroke="#eeeeee" d="M77.25,-295.68C79.19,-291.76 81.02,-287.32 82,-283 96.5,-219.3 90.49,-200.78 82,-136 81.24,-130.19 79.95,-124.06 78.48,-118.26"/>
<polygon fill="#eeeeee" stroke="#eeeeee" points="81.77,-117.02 75.75,-108.31 75.03,-118.88 81.77,-117.02"/>
</g>
</g>
</svg>
